# xmcd CD database file
#
# Track frame offsets:
#	150
#	19579
#	39980
#	57849
#	78668
#	100207
#	120902
#	140302
#	151777
#	173864
#	199475
#	217159
#	235526
#	257318
#	277954
#
# Disc length: 3903 seconds
#
# Revision: 0
# Processed by: cddbd v1.5.2PL0 Copyright (c) Steve Scherf et al.
# Submitted via: CDex 1.70beta3
#
DISCID=be0f3d0f
DTITLE=Yuji Toriyama 鳥山雄司 - 3×5
DYEAR=2016
DGENRE=Jazz
TTITLE0=Thank you 36
TTITLE1=Seeing is believing
TTITLE2=Etude for over 50's
TTITLE3=Yellow
TTITLE4=Louisa
TTITLE5=Solitaire
TTITLE6=Smile at strangers
TTITLE7=Puggy Days
TTITLE8=Stella by starlight (Live Ver.)
TTITLE9=At the Water's edge
TTITLE10=End up dancing?
TTITLE11=A step back in time
TTITLE12=Make a leap
TTITLE13=Peace in Cloud
TTITLE14=The Song of Life with 葉加瀬太郎 [bonus track]
EXTD=YEAR: 2016
EXTT0=
EXTT1=
EXTT2=
EXTT3=
EXTT4=
EXTT5=
EXTT6=
EXTT7=
EXTT8=
EXTT9=
EXTT10=
EXTT11=
EXTT12=
EXTT13=
EXTT14=
PLAYORDER=
